#!OML:ASF F:\VICON\USERDATA\INSTALL\rory3\rory3.ASF
:FULLY-SPECIFIED
:DEGREES
97
root -10.4833 15.6548 -5.75261 11.5992 21.5269 2.65346
lowerback 29.3228 1.42612 1.4967
upperback 7.3741 2.78743 3.85875
thorax -7.98112 1.36788 2.46919
lowerneck -16.9875 7.42161 -2.19984
upperneck 9.88854 11.6674 -7.87147
head 6.14124 4.97351 -0.949202
rclavicle 3.18055e-015 -2.06736e-014
rhumerus -27.5597 -30.1619 -53.7888
rradius 69.8912
rwrist 24.9137
rhand -34.2431 -16.3516
rfingers 7.12502
rthumb -7.41421 -46.2017
lclavicle 3.18055e-015 -2.06736e-014
lhumerus 6.57647 13.5128 71.1471
lradius 56.5555
lwrist -10.294
lhand -32.3313 51.4256
lfingers 7.12502
lthumb -5.56863 81.3324
rfemur -42.1488 -14.4802 27.3893
rtibia 75.9482
rfoot -30.4081 -7.17587
rtoes -1.52005
lfemur -65.2163 -1.2822 -17.5415
ltibia 39.6791
lfoot 19.5431 -9.89679
ltoes -22.1013
98
root -10.4481 15.6381 -5.69909 11.5557 20.8315 2.50546
lowerback 29.1899 1.54861 1.25028
upperback 7.47245 2.86439 3.91079
thorax -7.82301 1.40615 2.64545
lowerneck -16.85 7.58018 -2.23033
upperneck 9.65398 11.907 -8.1779
head 6.07081 5.08157 -1.02228
rclavicle -3.89618e-014 -9.54166e-015
rhumerus -27.6888 -29.9695 -54.1049
rradius 69.7323
rwrist 23.7024
rhand -34.7893 -16.3261
rfingers 7.12502
rthumb -7.94141 -46.1569
lclavicle -3.89618e-014 -9.54166e-015
lhumerus 7.22635 13.7294 71.1196
lradius 56.3902
lwrist -10.3802
lhand -32.1461 45.2201
lfingers 7.12502
lthumb -5.38979 75.1316
rfemur -42.0246 -14.0888 27.3454
rtibia 76.0922
rfoot -30.4322 -6.95951
rtoes -3.09206
lfemur -65.0383 -1.21513 -16.9868
ltibia 39.1396
lfoot 19.8708 -9.57307
ltoes -22.7491
99
root -10.4054 15.6157 -5.64898 11.5483 20.3155 2.44428
lowerback 29.1615 1.53442 1.16062
upperback 7.53512 2.81251 3.89482
thorax -7.73936 1.38136 2.69847
lowerneck -16.8784 7.72319 -2.29049
upperneck 9.415 12.1313 -8.43245
head 6.02113 5.18113 -1.0708
rclavicle -1.19271e-014 6.36111e-015
rhumerus -27.8187 -29.9121 -54.4966
rradius 69.5553
rwrist 22.2736
rhand -34.5826 -17.2477
rfingers 7.12502
rthumb -7.7419 -47.086
lclavicle -1.19271e-014 6.36111e-015
lhumerus 7.71948 13.6446 70.8617
lradius 56.4979
lwrist -10.3196
lhand -30.7429 37.7909
lfingers 7.12502
lthumb -4.03489 67.7324
rfemur -41.9655 -13.9396 27.2062
rtibia 76.3612
rfoot -30.5545 -6.68264
rtoes -2.60412
lfemur -64.9674 -1.41407 -16.428
ltibia 38.7412
lfoot 20.3083 -9.44077
ltoes -22.6839
100
root -10.3606 15.5944 -5.60623 11.6009 19.9112 2.49013
lowerback 29.3177 1.4561 1.07887
upperback 7.46712 2.68969 3.85231
thorax -7.88747 1.32239 2.73928
lowerneck -16.6904 7.91564 -2.2867
upperneck 9.20882 12.3884 -8.62475
head 5.94678 5.30883 -1.11365
rclavicle 4.85035e-014 -3.49861e-014
rhumerus -28.0639 -29.7582 -54.7519
rradius 69.3216
rwrist 21.4247
rhand -35.0053 -17.1189
rfingers 7.12502
rthumb -8.14993 -46.9418
lclavicle 4.85035e-014 -3.49861e-014
lhumerus 7.96409 13.6017 70.527
lradius 56.704
lwrist -10.4552
lhand -31.7273 42.4629
lfingers 7.12502
lthumb -4.98547 72.3842
rfemur -41.9866 -13.9335 26.9635
rtibia 76.7414
rfoot -30.753 -6.43221
rtoes -2.08853
lfemur -65.014 -1.7845 -15.8948
ltibia 38.4988
lfoot 20.9195 -9.03643
ltoes -20.7796
101
root -10.3116 15.5742 -5.56194 11.6042 19.458 2.40411
lowerback 29.4421 1.39966 1.1565
upperback 7.43701 2.63867 3.82194
thorax -7.97427 1.29536 2.67706
lowerneck -16.7958 8.01187 -2.50274
upperneck 9.27699 12.5546 -8.46856
head 5.96658 5.38714 -1.01107
rclavicle 5.08889e-014 1.74931e-014
rhumerus -28.3295 -29.7771 -54.9873
rradius 69.1534
rwrist 20.9621
rhand -37.3438 -12.4123
rfingers 7.12502
rthumb -10.4063 -42.1348
lclavicle 5.08889e-014 1.74931e-014
lhumerus 8.35046 13.7074 70.3716
lradius 56.789
lwrist -10.7321
lhand -31.5375 43.1404
lfingers 7.12502
lthumb -4.80218 73.066
rfemur -41.9589 -13.8806 26.8009
rtibia 77.1283
rfoot -30.9422 -6.16399
rtoes -1.97884
lfemur -65.0848 -1.88628 -15.442
ltibia 38.4331
lfoot 21.338 -9.17583
ltoes -18.5279
102
root -10.2593 15.5487 -5.50877 11.5981 18.9265 2.12038
lowerback 29.2628 1.3323 1.31415
upperback 7.50024 2.5862 3.82238
thorax -7.80721 1.26736 2.60714
lowerneck -17.4207 8.12921 -3.09029
upperneck 9.95532 12.8535 -7.84713
head 6.21234 5.50233 -0.663987
rclavicle 2.78299e-014 2.06736e-014
rhumerus -28.2631 -29.8444 -55.3907
rradius 68.8528
rwrist 20.7667
rhand -36.5229 -14.4142
rfingers 7.12502
rthumb -9.61436 -44.1748
lclavicle 2.78299e-014 2.06736e-014
lhumerus 8.94795 13.9495 70.2221
lradius 56.7671
lwrist -11.0078
lhand -31.2325 42.7286
lfingers 7.12502
lthumb -4.50763 72.6606
rfemur -41.9281 -13.7197 26.8321
rtibia 77.5137
rfoot -30.9935 -5.77814
rtoes -1.14465
lfemur -65.1972 -1.7573 -14.9028
ltibia 38.5105
lfoot 21.5404 -9.97997
ltoes -19.2293
103
root -10.2064 15.5155 -5.45659 11.7176 18.4286 1.79334
lowerback 29.1011 1.23936 1.51647
upperback 7.40963 2.52004 3.83591
thorax -7.82103 1.23165 2.53017
lowerneck -18.3888 8.27815 -3.97986
upperneck 11.4061 13.297 -6.79067
head 6.71259 5.65721 -0.0874055
rclavicle 4.21423e-014 3.49861e-014
rhumerus -28.5555 -29.7606 -55.5988
rradius 68.8388
rwrist 20.821
rhand -36.0993 -15.1921
rfingers 7.12502
rthumb -9.20562 -44.9712
lclavicle 4.21423e-014 3.49861e-014
lhumerus 9.08214 14.0734 69.8759
lradius 56.9837
lwrist -11.07
lhand -31.1428 41.4931
lfingers 7.12502
lthumb -4.42101 71.4269
rfemur -42.1667 -13.5177 26.9518
rtibia 77.9242
rfoot -31.034 -5.36367
rtoes -0.624587
lfemur -65.5777 -1.58657 -14.3714
ltibia 38.7494
lfoot 21.7278 -11.2413
ltoes -22.6021
104
root -10.162 15.4873 -5.4085 11.7569 17.826 1.66436
lowerback 29.3391 1.25204 1.45729
upperback 7.21191 2.5242 3.78786
thorax -8.16037 1.23029 2.50667
lowerneck -19.6987 8.3879 -4.9158
upperneck 13.4448 13.7506 -5.54139
head 7.44355 5.78821 0.598817
rclavicle -2.54444e-014 -3.18055e-015
rhumerus -29.265 -29.5749 -55.7787
rradius 68.9174
rwrist 20.1958
rhand -35.8008 -16.0318
rfingers 7.12502
rthumb -8.91761 -45.8234
lclavicle -2.54444e-014 -3.18055e-015
lhumerus 8.91272 13.8672 69.4338
lradius 57.3778
lwrist -10.6016
lhand -31.4296 40.9435
lfingers 7.12502
lthumb -4.69797 70.8714
rfemur -42.3679 -13.1395 26.8415
rtibia 78.3426
rfoot -31.0091 -4.97454
rtoes -0.298985
lfemur -65.9028 -1.44943 -13.992
ltibia 39.0466
lfoot 22.2027 -12.533
ltoes -23.902
105
root -10.1202 15.4589 -5.36378 11.6449 17.0496 1.38125
lowerback 29.6966 1.36082 1.35772
upperback 7.16544 2.64388 3.81479
thorax -8.39636 1.28417 2.54878
lowerneck -22.2994 8.45529 -6.25065
upperneck 16.685 14.3409 -3.57426
head 8.71665 5.92987 1.71009
rclavicle 2.78299e-014 -3.33958e-014
rhumerus -29.4538 -29.4837 -56.0312
rradius 68.5546
rwrist 19.5172
rhand -36.0415 -16.3955
rfingers 7.12502
rthumb -9.14987 -46.177
lclavicle 2.78299e-014 -3.33958e-014
lhumerus 9.44975 14.0812 69.4441
lradius 57.2814
lwrist -10.6786
lhand -32.8059 50.7272
lfingers 7.12502
lthumb -6.02682 80.6214
rfemur -42.4663 -12.4986 26.8663
rtibia 78.7676
rfoot -30.9108 -4.57132
rtoes 0.708627
lfemur -66.0727 -1.26547 -13.2679
ltibia 39.3994
lfoot 22.7667 -13.2772
ltoes -23.1458
